<svg xmlns="http://www.w3.org/2000/svg" width="96" height="96" viewBox="0 0 96 96">
                      <path fill="#0067B2" d="m73.275 30.046-4.652 4.652a24.542 24.542 0 1 1-7.306-7.308l4.65-4.65a31 31 0 1 0 7.308 7.306Z"></path>
                      <path fill="#263238" d="M11.657 48.657a.65.65 0 0 1-.649-.65 37.042 37.042 0 0 1 37-37 .65.65 0 0 1 0 1.3 35.743 35.743 0 0 0-35.701 35.7.647.647 0 0 1-.65.65Zm40.246-36.35h-1.299a.649.649 0 1 1 0-1.3h1.299a.649.649 0 1 1 0 1.3Zm-3.895 72.7a.65.65 0 0 1 0-1.298A35.742 35.742 0 0 0 83.71 48.008a.65.65 0 0 1 1.298 0 37.042 37.042 0 0 1-37 37Zm-2.596 0h-1.298a.65.65 0 0 1 0-1.298h1.298a.65.65 0 0 1 0 1.299ZM68.78 14.903h-5.19a.65.65 0 0 1 0-1.298h5.19a.649.649 0 1 1 0 1.298Z"></path>
                      <path fill="#263238" d="M66.641 17.135a.65.65 0 0 1-.448-.18.612.612 0 0 1-.185-.433V11.62c0-.163.067-.319.186-.434a.644.644 0 0 1 .895 0c.12.115.186.271.186.434v4.9a.594.594 0 0 1-.185.435.635.635 0 0 1-.449.179Zm17.734 12.873H79.31a.644.644 0 0 1-.448-.18.603.603 0 0 1 0-.867.644.644 0 0 1 .448-.18h5.064c.168 0 .329.065.448.18a.604.604 0 0 1 .185.434.603.603 0 0 1-.185.433.644.644 0 0 1-.448.18Z"></path>
                      <path fill="#263238" d="M81.508 33.008a.428.428 0 0 1-.191-.046.504.504 0 0 1-.163-.13.62.62 0 0 1-.108-.195.702.702 0 0 1-.038-.23v-4.799c0-.159.053-.312.147-.424a.462.462 0 0 1 .353-.176c.133 0 .26.063.354.176a.666.666 0 0 1 .146.424v4.8a.705.705 0 0 1-.038.23.62.62 0 0 1-.108.194.505.505 0 0 1-.162.13.428.428 0 0 1-.192.046Z"></path>
                      <path fill="#EFF4F7" d="m84.008 19.508-7.5 7.5-6.563-.937-.937-6.563 7.5-7.5.938 6.562 6.562.938Z"></path>
                      <path fill="#263238" d="M76.005 28.008a.538.538 0 0 1-.09-.007l-6.43-.918a.651.651 0 0 1-.553-.552l-.918-6.432a.655.655 0 0 1 .185-.553l7.347-7.346a.65.65 0 0 1 1.104.367l.85 5.947 5.946.85a.648.648 0 0 1 .369 1.104l-7.35 7.349a.648.648 0 0 1-.46.19Zm-5.855-2.142 5.624.804 6.201-6.2-5.144-.734a.65.65 0 0 1-.552-.552l-.735-5.143-6.198 6.199.804 5.626Z"></path>
                      <path fill="#EFF4F7" d="m69.772 26.244-.461-3.236-23.575 23.574a2.615 2.615 0 0 0 3.698 3.698l23.574-23.574-3.236-.462Z"></path>
                      <path fill="#263238" d="M47.35 52.008a3.339 3.339 0 0 1-2.363-5.702l24.095-24.1a.668.668 0 0 1 1.137.378l.402 2.813 2.812.4a.669.669 0 0 1 .377 1.138l-24.095 24.1a3.328 3.328 0 0 1-2.365.973Zm21.733-27.91L45.933 47.25a2.005 2.005 0 0 0 2.834 2.836l23.15-23.153-1.985-.284a.669.669 0 0 1-.568-.568l-.28-1.985Z"></path>
                      <path fill="#0067B2" d="m64.782 39.71-5.007 5.007a11.891 11.891 0 1 1-7.474-7.475l5.007-5.007a18.5 18.5 0 1 0 7.474 7.475Z"></path>
                      <path fill="#fff" d="m68.172 35.22-4.607 4.703A18.382 18.382 0 0 1 65.276 52.4c-.916 4.233-3.294 7.989-6.7 10.58a17.426 17.426 0 0 1-11.847 3.53c-4.236-.315-8.22-2.175-11.223-5.241a18.218 18.218 0 0 1-5.131-11.458 18.319 18.319 0 0 1 3.459-12.093c2.538-3.476 6.218-5.903 10.365-6.838a17.364 17.364 0 0 1 12.222 1.749l4.607-4.703a23.603 23.603 0 0 0-16.82-3.61c-5.85.959-11.147 4.092-14.87 8.797-3.724 4.706-5.61 10.651-5.296 16.691.313 6.04 2.805 11.75 6.994 16.027 4.19 4.277 9.781 6.821 15.698 7.142 5.917.321 11.741-1.603 16.352-5.404 4.61-3.8 7.68-9.206 8.619-15.179a24.915 24.915 0 0 0-3.533-17.17Z"></path>
                      <path fill="#263238" d="M48.009 80.008a31.983 31.983 0 0 1-25.84-13.121 32.005 32.005 0 0 1 15.715-49.238 31.984 31.984 0 0 1 28.66 4.284.653.653 0 0 1-.757 1.065 30.683 30.683 0 0 0-41.221 5.205 30.704 30.704 0 0 0 1.739 41.524 30.686 30.686 0 0 0 52.15-17.863 30.705 30.705 0 0 0-5.434-21.63.654.654 0 0 1 1.064-.758 31.992 31.992 0 0 1-9.428 45.868 31.967 31.967 0 0 1-16.648 4.664Z"></path>
                      <path fill="#263238" d="M48.006 73.008A24.991 24.991 0 0 1 27.987 62.98 25.002 25.002 0 0 1 50.72 23.156a24.993 24.993 0 0 1 10.84 3.848.642.642 0 0 1-.696 1.078 23.823 23.823 0 0 0-29.634 3.152 23.726 23.726 0 0 0 16.772 40.5c6.29 0 12.324-2.5 16.773-6.948a23.831 23.831 0 0 0 3.151-29.64.641.641 0 0 1 1.078-.696 24.992 24.992 0 0 1-8.228 35.057 24.981 24.981 0 0 1-12.77 3.5Z"></path>
                      <path fill="#263238" d="M48.02 67.008A19.015 19.015 0 0 1 34.574 34.55a19.127 19.127 0 0 1 22.489-3.28.657.657 0 0 1-.625 1.155 17.8 17.8 0 0 0-20.933 3.05 17.703 17.703 0 1 0 25.037 25.037 17.81 17.81 0 0 0 3.051-20.935.654.654 0 1 1 1.152-.622 19.125 19.125 0 0 1-3.277 22.485 18.89 18.89 0 0 1-13.448 5.568Z"></path>
                      <path fill="#263238" d="M47.54 61.007a12.517 12.517 0 0 1-12.368-14.543 12.523 12.523 0 0 1 11.004-10.427 12.515 12.515 0 0 1 5.353.584.66.66 0 1 1-.42 1.25 11.203 11.203 0 0 0-13.098 4.717 11.21 11.21 0 0 0 8.237 17.04 11.203 11.203 0 0 0 11.83-7.34c.856-2.378.882-4.976.076-7.372a.658.658 0 1 1 1.248-.42 12.51 12.51 0 0 1-6.147 15.137 12.5 12.5 0 0 1-5.715 1.374Zm22.37-34.242a.659.659 0 0 1-.467-1.121l7.457-7.46a.66.66 0 0 1 .932.932l-7.457 7.46a.655.655 0 0 1-.465.19Z"></path>
                    </svg>