 <svg
                      xmlns="http://www.w3.org/2000/svg"
                      width="96"
                      height="96"
                      viewbox="0 0 96 96"
                    >
                      <path
                        fill="#263238"
                        d="M48.453 69.754a4.662 4.662 0 0 1-1.763-.342 4.603 4.603 0 0 1-1.495-.981l-4.748-4.671a3.053 3.053 0 0 0-.995-.656 3.096 3.096 0 0 0-1.176-.229h-6.72a4.652 4.652 0 0 1-3.255-1.328c-.863-.85-1.35-2-1.35-3.201V51.74a2.956 2.956 0 0 0-.233-1.156 2.996 2.996 0 0 0-.668-.978l-4.75-4.671a4.492 4.492 0 0 1-1.348-3.202c0-1.2.485-2.352 1.348-3.202l4.75-4.672c.287-.28.514-.612.668-.978.155-.367.234-.76.232-1.156V25.12a4.496 4.496 0 0 1 1.351-3.2 4.651 4.651 0 0 1 3.256-1.329h6.718c.403.001.803-.077 1.175-.229.373-.151.711-.374.996-.656l4.748-4.669a4.761 4.761 0 0 1 3.257-1.283c1.213 0 2.38.46 3.258 1.283l4.75 4.67a3.095 3.095 0 0 0 2.17.885h6.72a4.652 4.652 0 0 1 3.255 1.327c.863.85 1.349 2 1.35 3.201v6.605c0 .397.078.79.233 1.156.154.366.381.699.667.978l4.749 4.672c.428.42.767.92.998 1.47a4.461 4.461 0 0 1 0 3.465 4.525 4.525 0 0 1-.998 1.469l-4.749 4.67c-.286.28-.513.613-.667.98-.154.366-.233.758-.233 1.155v6.606a4.496 4.496 0 0 1-1.35 3.201 4.652 4.652 0 0 1-3.256 1.328H58.63a3.09 3.09 0 0 0-1.175.228 3.05 3.05 0 0 0-.995.657l-4.751 4.67c-.428.421-.935.755-1.494.982a4.658 4.658 0 0 1-1.762.342ZM31.557 22.1a3.102 3.102 0 0 0-2.17.886 2.998 2.998 0 0 0-.9 2.133v6.605a4.428 4.428 0 0 1-.349 1.734 4.49 4.49 0 0 1-1.001 1.468l-4.75 4.672a2.996 2.996 0 0 0-.9 2.135c0 .8.324 1.568.9 2.135l4.75 4.67c.43.42.77.919 1.001 1.468.232.55.35 1.14.348 1.734v6.606c.001.8.325 1.568.9 2.134a3.1 3.1 0 0 0 2.17.885h6.719a4.645 4.645 0 0 1 1.764.343c.559.227 1.066.562 1.493.984l4.748 4.67a3.105 3.105 0 0 0 2.172.882c.814 0 1.595-.317 2.172-.881l4.75-4.671a4.583 4.583 0 0 1 1.493-.985 4.646 4.646 0 0 1 1.764-.342h6.718a3.1 3.1 0 0 0 2.17-.885c.576-.566.9-1.334.9-2.134v-6.606a4.426 4.426 0 0 1 .349-1.734 4.49 4.49 0 0 1 1.001-1.467l4.748-4.671c.286-.28.512-.613.666-.98a2.976 2.976 0 0 0-.666-3.29l-4.748-4.672c-.43-.42-.77-.918-1.001-1.468a4.428 4.428 0 0 1-.348-1.734v-6.605a2.998 2.998 0 0 0-.9-2.133 3.101 3.101 0 0 0-2.17-.886h-6.72a4.642 4.642 0 0 1-1.763-.342 4.578 4.578 0 0 1-1.493-.985l-4.75-4.669a3.173 3.173 0 0 0-2.172-.855c-.809 0-1.587.306-2.172.855l-4.748 4.67a4.58 4.58 0 0 1-1.493.984 4.642 4.642 0 0 1-1.764.342h-6.718Z"
                      />
                      <path
                        fill="#0067B2"
                        d="M58.683 64.754a.773.773 0 0 0-.542.224l-4.777 4.716a6.963 6.963 0 0 1-2.215 1.471l6.54 15.59 4.178-9.959 10.085 4.125-6.781-16.167h-6.488Zm-15.146 4.94-4.777-4.716a.765.765 0 0 0-.542-.224h-6.485l-6.781 16.167 10.085-4.125 4.178 9.958 6.54-15.589a6.947 6.947 0 0 1-2.218-1.47Z"
                      />
                      <path
                        fill="#263238"
                        d="M57.392 87.754a.742.742 0 0 1-.69-.467l-6.333-15.49a.766.766 0 0 1 .156-.833.747.747 0 0 1 .532-.224.737.737 0 0 1 .532.227c.069.072.123.157.16.25l5.643 13.8 3.357-8.204a.754.754 0 0 1 .404-.41.738.738 0 0 1 .572 0l8.098 3.403-5.875-14.374a.766.766 0 0 1 .155-.834.748.748 0 0 1 .533-.224.739.739 0 0 1 .531.228c.07.071.124.156.16.25l6.569 16.063a.77.77 0 0 1-.163.825.746.746 0 0 1-.815.165l-9.075-3.809-3.758 9.194a.74.74 0 0 1-.694.465Zm-17.883 0a.742.742 0 0 1-.69-.467l-3.76-9.194-9.073 3.81a.74.74 0 0 1-.815-.166.762.762 0 0 1-.163-.826l6.566-16.063a.76.76 0 0 1 .402-.433.74.74 0 0 1 .835.164.757.757 0 0 1 .213.554.768.768 0 0 1-.069.296L27.08 79.802l8.098-3.401a.738.738 0 0 1 .976.409l3.357 8.204 5.642-13.799a.757.757 0 0 1 .405-.41.738.738 0 0 1 .814.165.757.757 0 0 1 .219.536c0 .1-.02.198-.057.29l-6.332 15.487a.74.74 0 0 1-.692.471Zm8.936-30.194a15.55 15.55 0 0 1-8.72-2.68 15.86 15.86 0 0 1-5.78-7.137 16.099 16.099 0 0 1-.893-9.188 15.969 15.969 0 0 1 4.295-8.143 15.632 15.632 0 0 1 8.036-4.352c3.045-.614 6.2-.299 9.068.905a15.742 15.742 0 0 1 7.044 5.857 16.053 16.053 0 0 1-1.957 20.075 15.608 15.608 0 0 1-11.093 4.663Zm0-30.29c-2.808 0-5.554.843-7.889 2.424a14.348 14.348 0 0 0-5.23 6.457 14.564 14.564 0 0 0-.808 8.313 14.448 14.448 0 0 0 3.886 7.367 14.142 14.142 0 0 0 7.271 3.937c2.755.556 5.61.27 8.204-.818a14.242 14.242 0 0 0 6.373-5.3 14.524 14.524 0 0 0 2.393-7.993 14.502 14.502 0 0 0-4.164-10.169 14.123 14.123 0 0 0-10.036-4.219Z"
                      />
                      <path
                        fill="#263238"
                        d="M59.272 42.754a.75.75 0 0 1-.697-.468.764.764 0 0 1-.057-.29 9.92 9.92 0 0 0-2.877-6.98 9.79 9.79 0 0 0-6.934-2.896.75.75 0 0 1-.697-.469.763.763 0 0 1 .408-.993.75.75 0 0 1 .289-.058 11.3 11.3 0 0 1 8 3.343 11.449 11.449 0 0 1 3.32 8.052.765.765 0 0 1-.466.702.751.751 0 0 1-.289.057Zm12.925-30.48h-6.039c-.2 0-.392-.08-.534-.222a.762.762 0 0 1 .534-1.298h6.04a.762.762 0 0 1 0 1.52Z"
                      />
                      <path
                        fill="#263238"
                        d="M68.73 15.254a.794.794 0 0 1-.55-.22.737.737 0 0 1-.228-.53v-6c0-.198.082-.39.228-.53a.793.793 0 0 1 .55-.22c.206 0 .404.08.55.22.146.14.228.332.228.53v6c0 .2-.083.39-.228.53a.793.793 0 0 1-.55.22Zm12.444 4.5h-6.223a.793.793 0 0 1-.55-.22.736.736 0 0 1-.228-.53c0-.199.082-.39.228-.53a.793.793 0 0 1 .55-.22h6.223c.206 0 .404.08.55.22.146.14.228.331.228.53 0 .2-.082.39-.228.53a.793.793 0 0 1-.55.22Z"
                      />
                      <path
                        fill="#263238"
                        d="M78.278 22.302a.766.766 0 0 1-.539-.22.751.751 0 0 1-.223-.534V15.51c0-.2.08-.392.223-.534a.766.766 0 0 1 1.078 0 .751.751 0 0 1 .224.534v6.04c0 .2-.081.391-.224.533a.767.767 0 0 1-.54.22ZM18.723 54.754H7.288a.766.766 0 0 1-.539-.22.751.751 0 0 1 0-1.068.766.766 0 0 1 .54-.221h11.434c.202 0 .396.08.539.22a.75.75 0 0 1 0 1.068.766.766 0 0 1-.54.221Zm-14.484 0H2.715a.766.766 0 0 1-.54-.22.751.751 0 0 1 0-1.068.766.766 0 0 1 .54-.221h1.524c.203 0 .397.08.54.22a.75.75 0 0 1 0 1.068.766.766 0 0 1-.54.221Zm85.377 0H78.18a.766.766 0 0 1-.539-.22.751.751 0 0 1 0-1.068.766.766 0 0 1 .54-.221h11.434c.202 0 .396.08.539.22a.75.75 0 0 1 0 1.068.766.766 0 0 1-.54.221Zm4.573 0h-1.524a.766.766 0 0 1-.54-.22.751.751 0 0 1 0-1.068.766.766 0 0 1 .54-.221h1.524c.203 0 .397.08.54.22a.75.75 0 0 1 0 1.068.766.766 0 0 1-.54.221Z"
                      />
                    </svg>