<svg xmlns="http://www.w3.org/2000/svg" width="96" height="96" viewBox="0 0 96 96">
                      <path fill="#263238" d="M36.335 79.788a.648.648 0 0 1-.365-.112.68.68 0 0 1-.1-1.03l4.227-4.31a7.187 7.187 0 0 1 2.228-1.546l8.244-3.651a12.52 12.52 0 0 0 5.29-4.432l11.944-17.612a.662.662 0 0 1 .423-.278.645.645 0 0 1 .67.296.676.676 0 0 1-.013.744L56.94 65.468a13.815 13.815 0 0 1-5.848 4.899l-8.243 3.651c-.68.301-1.299.73-1.823 1.266l-4.227 4.308a.65.65 0 0 1-.464.196Zm10.961-19.852a7.1 7.1 0 0 1-2.68-.526l-2.23-.909a7.164 7.164 0 0 1-2.365-1.564 7.324 7.324 0 0 1-1.591-2.373l-2.87-6.825a.682.682 0 0 1 .002-.505.663.663 0 0 1 .349-.36.645.645 0 0 1 .496-.009c.16.064.29.189.36.349l2.869 6.823a5.991 5.991 0 0 0 1.302 1.941 5.862 5.862 0 0 0 1.935 1.28l2.23.91a5.768 5.768 0 0 0 3.356.314l2.335-.477a5.906 5.906 0 0 0 3.429-2.109l7.047-8.842a.661.661 0 0 1 .445-.261.646.646 0 0 1 .494.145.667.667 0 0 1 .24.464.683.683 0 0 1-.16.498l-7.047 8.84a7.222 7.222 0 0 1-4.194 2.579l-2.334.475a7.092 7.092 0 0 1-1.418.142ZM25.656 68.9a.648.648 0 0 1-.364-.113.682.682 0 0 1-.1-1.03l3.286-3.35a9.364 9.364 0 0 0 2.154-3.455 9.51 9.51 0 0 0 .498-4.063l-.873-9.35a.679.679 0 0 1 .147-.49.654.654 0 0 1 1.159.362l.875 9.352a10.868 10.868 0 0 1-.57 4.642 10.703 10.703 0 0 1-2.462 3.948l-3.286 3.35a.649.649 0 0 1-.463.197Z"></path>
                      <path fill="#0067B2" d="m14.832 75.37 13.986 13.98a1.06 1.06 0 0 0 1.499 0l5.54-5.537a1.059 1.059 0 0 0 0-1.497L21.87 68.336a1.06 1.06 0 0 0-1.498 0l-5.54 5.537a1.059 1.059 0 0 0 0 1.498Z"></path>
                      <path fill="#263238" d="M29.571 90.212a1.978 1.978 0 0 1-1.408-.582L14.556 76.029a1.993 1.993 0 0 1 0-2.814l5.162-5.159a2.039 2.039 0 0 1 2.816 0L36.14 81.657a1.993 1.993 0 0 1 0 2.814l-5.162 5.159a1.982 1.982 0 0 1-1.408.582ZM15.495 75.091l13.608 13.6a.68.68 0 0 0 .939 0l5.161-5.159a.663.663 0 0 0 0-.938l-13.607-13.6a.68.68 0 0 0-.939 0l-5.16 5.159a.663.663 0 0 0 0 .938h-.002ZM80.98 45.802H15.02a2.04 2.04 0 0 1-1.428-.581A1.968 1.968 0 0 1 13 43.819v-2.644c0-.526.213-1.03.592-1.402a2.04 2.04 0 0 1 1.427-.582h65.962c.535 0 1.048.21 1.427.582s.591.876.592 1.402v2.644c0 .526-.213 1.03-.592 1.402a2.04 2.04 0 0 1-1.427.581Zm-65.96-5.29c-.18 0-.35.07-.476.194a.655.655 0 0 0-.197.468v2.644c0 .175.07.343.197.467a.68.68 0 0 0 .475.194h65.962a.68.68 0 0 0 .475-.194.656.656 0 0 0 .197-.467v-2.644a.656.656 0 0 0-.197-.467.68.68 0 0 0-.475-.194H15.019ZM48.18 57.18a.683.683 0 0 1-.36-.103.651.651 0 0 1-.163-.976l7.223-8.73a.668.668 0 0 1 .457-.258.684.684 0 0 1 .506.143.664.664 0 0 1 .246.458.65.65 0 0 1-.164.492l-7.223 8.73a.67.67 0 0 1-.522.244ZM75.596 75.82H74.25a.68.68 0 0 1-.476-.193.655.655 0 0 1 0-.936.68.68 0 0 1 .476-.193h1.346c.179 0 .35.07.476.194a.655.655 0 0 1 0 .935.68.68 0 0 1-.476.193Zm-4.038 0H56.75a.68.68 0 0 1-.476-.193.656.656 0 0 1 0-.936.68.68 0 0 1 .476-.193h14.808c.178 0 .35.07.476.194a.656.656 0 0 1 0 .935.68.68 0 0 1-.476.193Zm-2.692 3.967h-17.5a.68.68 0 0 1-.477-.194.655.655 0 0 1 0-.935.68.68 0 0 1 .476-.194h17.5c.178 0 .35.07.476.194a.656.656 0 0 1 0 .935.677.677 0 0 1-.475.194Zm3.7-62.147a.683.683 0 0 1-.396-.123.664.664 0 0 1-.248-.33l-.742-2.191a3.088 3.088 0 0 0-.76-1.203 3.16 3.16 0 0 0-1.223-.745l-2.232-.731a.672.672 0 0 1-.332-.241.653.653 0 0 1 0-.772.672.672 0 0 1 .332-.24l2.232-.732c.461-.152.88-.407 1.224-.744.344-.338.604-.75.758-1.202l.743-2.194a.693.693 0 0 1 .259-.295.71.71 0 0 1 1.02.295l.742 2.194c.155.453.415.864.759 1.202.344.338.763.592 1.224.744l2.232.732c.134.043.25.128.333.24a.653.653 0 0 1-.333 1.014l-2.232.731a3.16 3.16 0 0 0-1.224.745c-.344.338-.604.75-.759 1.203l-.742 2.192a.664.664 0 0 1-.244.325.683.683 0 0 1-.39.126Zm-3.255-5.95.316.105c.66.217 1.258.582 1.75 1.065a4.406 4.406 0 0 1 1.085 1.719l.107.31.107-.31a4.407 4.407 0 0 1 1.085-1.72 4.512 4.512 0 0 1 1.75-1.064l.316-.105-.316-.106a4.515 4.515 0 0 1-1.75-1.065 4.41 4.41 0 0 1-1.085-1.718l-.107-.31-.108.31a4.41 4.41 0 0 1-1.084 1.718 4.515 4.515 0 0 1-1.75 1.065l-.316.106Z"></path>
                      <path fill="#0067B2" d="M62.772 15.659h-40.35a1.06 1.06 0 0 0-1.06 1.059v21.76a1.06 1.06 0 0 0 1.06 1.058h40.35a1.06 1.06 0 0 0 1.06-1.059v-21.76a1.06 1.06 0 0 0-1.06-1.058Z"></path>
                      <path fill="#263238" d="M62.504 40.199H22.69a1.993 1.993 0 0 1-1.99-1.99V16.985a1.992 1.992 0 0 1 1.99-1.99h39.814a1.994 1.994 0 0 1 1.99 1.99V38.21a1.991 1.991 0 0 1-1.99 1.99ZM22.69 16.321a.665.665 0 0 0-.663.663v21.224a.663.663 0 0 0 .663.663h39.814a.664.664 0 0 0 .663-.663V16.984a.664.664 0 0 0-.663-.663H22.69Z"></path>
                      <path fill="#EFF4F7" d="M67 39.788h6.666c.175 0 .349-.038.51-.114.163-.075.31-.186.434-.325.124-.14.222-.305.289-.487.067-.182.101-.377.101-.574v-3a1.6 1.6 0 0 0-.39-1.06c-.25-.282-.59-.44-.944-.44H67"></path>
                      <path fill="#263238" d="M73.857 39.788h-7.142a.722.722 0 0 1-.506-.205.693.693 0 0 1 0-.99.722.722 0 0 1 .505-.205h7.143c.19 0 .37-.075.505-.206a.694.694 0 0 0 .209-.494v-2.8a.694.694 0 0 0-.21-.494.722.722 0 0 0-.504-.206h-7.142a.722.722 0 0 1-.506-.205.693.693 0 0 1 0-.99.722.722 0 0 1 .505-.205h7.143c.568 0 1.113.222 1.515.616.401.394.627.927.628 1.484v2.8c0 .557-.227 1.09-.628 1.484a2.168 2.168 0 0 1-1.515.616Z"></path>
                      <path fill="#EFF4F7" d="M67 33.788h6.666c.354 0 .693-.132.943-.366.25-.235.391-.553.391-.884v-2.5c0-.164-.034-.326-.101-.478a1.247 1.247 0 0 0-.29-.406 1.344 1.344 0 0 0-.432-.271 1.41 1.41 0 0 0-.51-.095H67"></path>
                      <path fill="#263238" d="M73.857 33.788h-7.142a.789.789 0 0 1-.506-.176.556.556 0 0 1-.209-.424c0-.16.075-.312.21-.425a.789.789 0 0 1 .505-.175h7.142c.19 0 .37-.064.505-.176a.557.557 0 0 0 .209-.424v-2.4a.557.557 0 0 0-.21-.424.789.789 0 0 0-.504-.176h-7.142a.79.79 0 0 1-.506-.175.556.556 0 0 1-.209-.425c0-.159.075-.312.21-.424a.789.789 0 0 1 .505-.176h7.142c.568 0 1.113.19 1.515.528.401.337.627.795.628 1.272v2.4c0 .477-.227.935-.628 1.272a2.368 2.368 0 0 1-1.515.528Z"></path>
                      <path fill="#EFF4F7" d="M67 28.788h6.666c.354 0 .693-.132.943-.366.25-.235.391-.553.391-.884v-2.5c0-.164-.034-.326-.101-.478a1.247 1.247 0 0 0-.29-.406 1.344 1.344 0 0 0-.432-.271 1.41 1.41 0 0 0-.51-.095H67"></path>
                      <path fill="#263238" d="M73.857 29.788h-7.142a.722.722 0 0 1-.506-.205.693.693 0 0 1 0-.99.722.722 0 0 1 .505-.205h7.143c.19 0 .37-.075.505-.206a.694.694 0 0 0 .209-.494v-2.8a.695.695 0 0 0-.21-.494.724.724 0 0 0-.504-.205h-7.142a.722.722 0 0 1-.506-.206.693.693 0 0 1 0-.99.722.722 0 0 1 .505-.205h7.143c.568 0 1.113.222 1.515.616.402.393.628.927.628 1.484v2.8c0 .557-.227 1.09-.628 1.484a2.168 2.168 0 0 1-1.515.616Z"></path>
                      <path fill="#fff" d="M42.596 35.556a7.96 7.96 0 0 0 7.963-7.958 7.96 7.96 0 0 0-7.962-7.96 7.96 7.96 0 0 0-7.963 7.96 7.96 7.96 0 0 0 7.962 7.958Z"></path>
                      <path fill="#263238" d="M42.598 36.22a8.63 8.63 0 0 1-7.97-5.323 8.62 8.62 0 0 1 6.287-11.757 8.63 8.63 0 0 1 8.855 3.667 8.62 8.62 0 0 1 1.454 4.79 8.638 8.638 0 0 1-8.627 8.623Zm0-15.918a7.302 7.302 0 0 0-6.744 4.504 7.293 7.293 0 0 0 5.32 9.948 7.302 7.302 0 0 0 8.723-7.155 7.305 7.305 0 0 0-7.3-7.297Z"></path>
                      <path fill="#3990D0" d="M56.144 35.788H29.853a.699.699 0 0 1-.362-.101.663.663 0 0 1-.25-.272c-.971-1.97-2.693-3.506-4.808-4.286a.675.675 0 0 1-.314-.24.637.637 0 0 1-.119-.37v-6.46c0-.132.04-.261.118-.37a.674.674 0 0 1 .315-.24c2.116-.782 3.837-2.318 4.809-4.29a.66.66 0 0 1 .25-.27.695.695 0 0 1 .362-.1h26.29c.128-.001.254.034.362.1a.66.66 0 0 1 .25.27c.97 1.974 2.694 3.51 4.81 4.29a.677.677 0 0 1 .315.24.639.639 0 0 1 .119.37v6.46a.64.64 0 0 1-.119.37.678.678 0 0 1-.314.24c-2.116.78-3.838 2.315-4.809 4.286a.662.662 0 0 1-.25.272.698.698 0 0 1-.364.101ZM30.27 34.48h25.456c1.074-1.961 2.808-3.513 4.918-4.4v-5.584c-2.11-.886-3.845-2.438-4.918-4.4H30.272c-1.074 1.962-2.808 3.513-4.918 4.4v5.584c2.11.887 3.844 2.439 4.917 4.4Z"></path>
                    </svg>